<!-- Generated by IcoMoon.io -->
<svg version="1.1" xmlns="http://www.w3.org/2000/svg" width="32" height="32" viewBox="0 0 1024 1024">
<g id="icomoon-ignore">
</g>
<path fill="#0078d6" d="M383.36 110.763v748.715l167.040 53.803v-627.925c0-29.44 12.971-49.109 33.877-42.283 27.136 7.723 32.427 34.731 32.427 64.213v250.709c104.149 50.901 186.112-0.085 186.112-134.528 0-138.112-48.043-199.467-189.355-248.619-55.765-19.115-159.061-50.603-230.016-64.085zM582.016 803.755l268.629-97.067c30.507-11.008 35.243-26.667 10.496-34.901-25.003-8.192-69.845-5.931-100.565 5.248l-179.413 63.957v-101.76l10.24-3.627c0 0 51.243-17.92 124.288-26.24 72.363-7.68 161.493 1.237 231.979 28.203 78.848 25.643 87.083 62.805 67.243 88.405s-69.205 44.203-69.205 44.203l-364.544 132.565v-98.005zM77.141 793.6c-81.067-23.253-94.464-71.168-57.685-99.029 34.176-24.96 92.117-44.843 92.117-44.843l239.616-85.888v98.688l-171.733 62.805c-30.080 11.563-35.2 26.965-10.197 35.243 25.003 8.32 69.845 6.4 99.968-5.12l82.688-30.123v88.491c-5.163 1.237-10.923 1.877-16.683 3.115-82.688 14.123-170.453 8.363-257.579-20.437z"></path>
</svg>
