<?xml version="1.0" encoding="UTF-8" standalone="no"?>
<!-- Created with Inkscape (http://www.inkscape.org/) -->

<svg
   xmlns:dc="http://purl.org/dc/elements/1.1/"
   xmlns:cc="http://creativecommons.org/ns#"
   xmlns:rdf="http://www.w3.org/1999/02/22-rdf-syntax-ns#"
   xmlns:svg="http://www.w3.org/2000/svg"
   xmlns="http://www.w3.org/2000/svg"
   xmlns:sodipodi="http://sodipodi.sourceforge.net/DTD/sodipodi-0.dtd"
   xmlns:inkscape="http://www.inkscape.org/namespaces/inkscape"
   width="1620"
   height="324.60001"
   viewBox="0 0 1619.9999 324.60001"
   id="svg2"
   version="1.1"
   inkscape:version="0.91 r13725"
   sodipodi:docname="Ny logo forslag.svg">
  <defs
     id="defs4" />
  <sodipodi:namedview
     id="base"
     pagecolor="#ffffff"
     bordercolor="#666666"
     borderopacity="1.0"
     inkscape:pageopacity="0.0"
     inkscape:pageshadow="2"
     inkscape:zoom="0.35"
     inkscape:cx="618.71841"
     inkscape:cy="399.24481"
     inkscape:document-units="px"
     inkscape:current-layer="layer2"
     showgrid="false"
     units="px"
     inkscape:window-width="1080"
     inkscape:window-height="1857"
     inkscape:window-x="1358"
     inkscape:window-y="-8"
     inkscape:window-maximized="1" />
  <metadata
     id="metadata7">
    <rdf:RDF>
      <cc:Work
         rdf:about="">
        <dc:format>image/svg+xml</dc:format>
        <dc:type
           rdf:resource="http://purl.org/dc/dcmitype/StillImage" />
        <dc:title />
      </cc:Work>
    </rdf:RDF>
  </metadata>
    <g transform="translate(0,-727.76218)">
        <g id="bakgrunn" style="fill:none">
            <path d="M 0,0 10000,0 10000,10000 0, 10000"/>
        </g>
        <g id="logo" style="fill:#19975D">
            <path id="top" d="M 102.11482,926.00588 C 184.98289,864.5215 283.24425,806.4047 368.748,770.79997 447.85671,740.48147 534.54781,717.89665 611.0744,737.75956 613.48544,772.24449 615.91915,790.95397 620.05827,838.77279 459.59757,880.35775 278.1227,908.35301 133.43884,923.50392 123.26181,924.48193 113.07744,925.56145 102.86677,926.0471 L 102.49066,926.02898 Z"/>
            <path id="bottom" d="M 11.266699,1026.0254 C 12.024907,999.32648 13.368044,970.58909 14.393533,952.40688 241.74847,935.99787 491.14262,894.39434 694.23445,842.14 698.44772,879.82321 703.01702,934.03399 710.07898,1025.7591 472.3771,1056.3795 233.56914,1050.9916 11.266699,1026.0254 Z"/>
        </g>
        <g id="tekst" style="fill:#fff">
            <g id="Ullensaker">
                <path id="U" d="M 825,899.69561 C 812.78088,898.45716 801.0714,889.30209 798.8382,876.90562 796.83783,865.81011 798.25397,854.50633 797.76379,843.31734 797.78259,834.54893 797.85,817.01221 797.85,817.01221 L 812.25,817.01221 C 812.25,817.01221 812.14228,855.21985 812.84823,874.31193 814.51774,882.42217 823.17616,887.66541 831.15464,886.95617 837.87225,887.03747 845.21163,883.66313 847.81199,877.13787 850.29784,870.01585 848.5671,862.40114 849.23844,855.05957 849.3503,842.37736 849.45,817.01221 849.45,817.01221 L 863.32221,817.08099 C 863.32221,817.08099 863.25978,829.54833 863.66311,835.77455 863.6531,849.50637 864.12077,863.28113 862.86112,876.97267 860.20225,890.10747 847.28929,899.9485 834.01006,899.79221 831.00781,899.94351 828.00044,899.83327 825,899.69561 Z"/>
                <path id="L1" d="M 884.30172,898.56395 884.1,817.17364 898.0197,817.00787 898.65,886.46719 933.75,886.46719 933.75,898.61222 Z"/>
                <path id="L2" d="M 946.70172,898.56395 946.5,817.17364 960.4197,817.00787 961.05,886.46719 996.15,886.46719 996.15,898.61222 Z"/>
                <path id="E1" d="M 1009.0999,898.56221 1009.0999,816.86219 1057.5,816.86219 1057.5,829.16219 1023.6114,829.16219 1023.4108,851.51219 1051.05,851.51219 1051.0333,863.66219 1023.6114,863.66219 1023.4036,886.46719 1059.2759,886.46719 1059.3573,898.53719 Z"/>
                <path id="N" d="M 1076,898.53719 1075.9566,816.86219 1090.2319,816.86219 1128.1159,876.426 1128.1159,816.86219 1142.5109,816.86219 1142.5109,898.53719 1128.1159,898.53719 1090.2319,840.89362 1090.2319,898.53719 Z"/>
                <path id="S" d="M 1179.3953,899.66487 C 1166.6486,897.46915 1156.976,889.53594 1156.976,889.53594 L 1165.1274,878.28981 C 1165.1274,878.28981 1179.1687,891.05462 1193.3848,884.88389 1198.537,881.95858 1199.4611,873.46637 1194.3783,870.01174 1187.5985,864.33016 1178.5753,862.68609 1171.1905,858.01346 1165.4266,854.64896 1160.2047,849.26223 1159.3598,842.36901 1157.7967,832.27638 1164.1263,821.67304 1173.7022,818.15935 1188.1527,812.81363 1200.3534,815.79951 1210.321,824.10579 L 1204.4879,835.50769 C 1194.3478,829.63189 1190.0484,828.24685 1182.8728,829.32623 1178.4177,830.09274 1173.8401,833.46478 1173.7058,838.32957 1173.2727,842.14757 1176.1247,845.17586 1179.2086,846.92242 1187.6906,852.59548 1198.6541,853.97657 1206.0165,861.42213 1211.1191,866.27881 1213.5106,873.7729 1211.8793,880.66199 1209.885,890.60498 1201.0309,899.01067 1190.756,899.57257 1186.9861,900.03195 1183.1763,899.88345 1179.3953,899.66487 Z"/>
                <path id="A" d="M 1217.7,898.32992 1246.3892,817.01221 1261.4744,817.14854 1291.0005,898.13316 1275.0777,898.04518 1268.3164,877.63718 1240.0738,877.58636 1232.4365,898.86424 Z M 1264.5374,865.5448 1253.6548,829.38123 1243.253,865.76322 Z"/>
                <path id="K1" d="M 1302.2054,898.56719 1302,817.17364 1315.9197,817.00819 1316.55,850.31221 1327.562,850.31221 1346.7932,817.00819 1362.5214,817.00819 1339.121,856.05516 1363.9342,898.56719 1347.3988,898.56719 1326.7482,862.3666 1316.8829,862.46698 1316.25,898.56719 Z"/>
                <path id="E2" d="M 1377.2017,898.56392 1377,817.17364 1425.7499,816.58092 1425.7499,829.01221 1391.5499,829.38235 1391.5499,851.21219 1419.15,851.21219 1419.031,863.86619 1391.5499,863.86619 1391.5499,886.31603 1427.55,886.61221 1427.55,898.61219 Z"/>
                <path id="R" d="M 1444.1042,898.61219 1443.8014,816.81619 1475.8934,816.81619 C 1493.3993,817.13634 1501.5353,834.04375 1499.8256,844.39585 1499.0991,850.72318 1496.0463,856.84164 1491.1289,860.94357 L 1486.0311,864.09984 1504.5517,898.61219 1488.9429,898.61219 1473.4359,868.14819 1458.2939,868.14819 1458.2948,898.61219 Z M 1485.2939,841.80745 C 1485.4258,829.14229 1476.28,829.03829 1458.2939,829.24647 L 1458.2939,854.79445 C 1477.2778,856.36759 1485.162,854.47261 1485.2939,841.80745 Z"/>
            </g>
            <g id="Bibliotek">
                <path id="B1" d="M 802.125,945.50492 C 802.125,945.50492 822.08488,945.11227 833.89855,945.61593 845.97529,946.22164 852.71073,957.95679 852.0503,966.37953 852.05591,971.87959 850.5473,979.55567 841.59392,983.941 856.45716,989.2117 860.88704,1011.4777 848.06704,1022.0689 842.0103,1027.3457 833.52975,1027.9759 825.8531,1027.7959 817.86944,1027.635 801.9,1027.7622 801.9,1027.7622 Z M 836.25,1020.3843 C 844.43535,1018.4621 849.19565,1009.0252 847.28577,1001.1099 846.14944,994.49246 840.26563,988.58566 833.40044,988.42511 826.53525,988.26456 809.69394,988.17737 809.69394,988.17737 L 809.69394,1020.8622 C 809.69394,1020.8622 827.42593,1021.3179 836.25,1020.3843 Z M 834.51483,980.77899 C 842.04041,978.60048 845.96862,969.5715 843.78201,962.31604 842.23979,956.20441 836.90565,952.20954 830.07603,952.20895 823.24642,952.20836 809.69394,952.09196 809.69394,952.09196 L 809.69394,981.26222 C 809.69394,981.26222 826.27008,981.73255 834.51483,980.77899 Z"/>
                <path id="I1" d="M 875.84994,945.51919 883.10394,945.51919 883.10394,1027.7802 875.84994,1027.7802 Z"/>
                <path id="B2" d="M 907.95,945.5312 940.43554,945.21866 C 953.96484,946.50515 958.8335,958.55206 957.89508,967.00847 957.89464,972.72382 956.48131,978.41849 947.40434,984.2259 958.17803,987.09023 962.52584,999.24442 961.1534,1008.7805 960.06275,1016.3288 953.98596,1027.153 940.13903,1027.9852 L 907.80465,1027.7802 Z M 942.97386,1020.2278 C 951.52195,1017.5104 955.6868,1006.9014 952.63749,998.7537 950.61928,992.45539 944.14658,987.63748 937.43345,988.34905 930.32306,988.12264 915.59994,988.15899 915.59994,988.15899 L 915.59994,1020.8805 C 915.59994,1020.8805 933.87434,1021.1219 942.97386,1020.2278 Z M 940.8,980.69606 C 950.05003,977.64712 953.35246,964.50329 947.09284,957.1984 943.7548,953.15326 938.20314,951.49553 933.10834,952.18247 927.77946,952.15253 915.59994,952.13343 915.59994,952.13343 L 915.59994,981.27547 C 915.59994,981.27547 932.4213,981.52499 940.8,980.69606 Z"/>
                <path id="L3" d="M 981.59794,945.51919 989.24994,945.51919 989.24994,1020.7122 1027.7349,1020.7122 1027.7349,1027.9492 981.59794,1027.7659 Z"/>
                <path id="I2" d="M 1042.3499,1027.9492 1042.3499,945.51919 1049.7449,945.51919 1049.7449,1027.9492 Z"/>
                <path id="O" d="M 1105.9304,1028.8207 C 1087.05,1027.0486 1071.1176,1010.458 1069.3,991.71442 1067.2001,975.82449 1074.6123,958.70955 1088.5134,950.37496 1104.1574,940.56913 1126.3552,942.3893 1139.7126,955.33449 1150.8989,965.79321 1155.3333,982.56302 1151.3855,997.28387 1148.2752,1009.6844 1139.4604,1020.7439 1127.5439,1025.6685 1120.7935,1028.6135 1113.2452,1029.8087 1105.9304,1028.8207 Z M 1116,1021.7709 C 1132.4127,1019.418 1145.2222,1003.4016 1144.6988,986.9662 1145.0792,977.60226 1141.8912,967.9488 1135.1239,961.31278 1126.9453,952.80226 1114.1773,949.097 1102.7243,952.0169 1090.9068,954.82861 1081.1773,964.5453 1078.1497,976.28354 1074.3963,989.58589 1078.6048,1004.9535 1089.1847,1014.004 1096.0484,1020.0611 1105.4934,1023.0738 1114.5937,1021.899 1115.063,1021.8623 1115.5318,1021.8194 1116,1021.7709 Z"/>
                <path id="T" d="M 1189.6499,952.38619 1160.0799,952.38619 1160.0799,945.51919 1227.1499,945.51919 1227.1499,952.4816 1197.4499,952.29077 1197.4499,1027.9492 1189.6499,1027.9492 Z"/>
                <path id="E3" d="M 1240.5469,1027.9492 1240.5469,945.51919 1286.7,945.51919 1286.7,952.31219 1248.1499,952.31219 1248.1499,983.21219 1279.3499,983.21219 1279.3499,989.79119 1248.1499,989.79119 1248.1499,1020.7122 1288.5693,1020.7122 1288.5693,1027.9492 Z"/>
                <path id="K2" d="M 1307.85,945.51919 1315.0499,945.51919 1315.0499,981.27319 1329.548,981.27319 1351.787,945.64546 1360.5999,945.51919 1335.7688,984.62556 1362.1152,1027.9492 1353.2473,1027.9492 1329.183,988.07419 1315.0499,988.07419 1315.0499,1027.9492 1307.6979,1027.9492 Z"/>
            </g>
        </g>
    </g>
</svg>
